<svg width="20" height="20" viewBox="0 0 20 20" fill="none" xmlns="http://www.w3.org/2000/svg">
<g id="clarity:trash-line">
<path id="Vector" d="M15.077 18.8889H4.9214C4.70761 18.8838 4.49692 18.8367 4.30136 18.7502C4.10579 18.6637 3.92919 18.5395 3.78163 18.3848C3.63408 18.23 3.51847 18.0477 3.44141 17.8482C3.36434 17.6487 3.32734 17.436 3.33251 17.2222V6.23889H4.44362V17.2222C4.43831 17.2901 4.44648 17.3584 4.46766 17.4231C4.48883 17.4878 4.52258 17.5477 4.56699 17.5993C4.61139 17.651 4.66556 17.6933 4.72638 17.7239C4.7872 17.7546 4.85348 17.7729 4.9214 17.7778H15.077C15.1449 17.7729 15.2111 17.7546 15.272 17.7239C15.3328 17.6933 15.387 17.651 15.4314 17.5993C15.4758 17.5477 15.5095 17.4878 15.5307 17.4231C15.5519 17.3584 15.56 17.2901 15.5547 17.2222V6.23889H16.6658V17.2222C16.671 17.436 16.634 17.6487 16.5569 17.8482C16.4799 18.0477 16.3643 18.23 16.2167 18.3848C16.0692 18.5395 15.8926 18.6637 15.697 18.7502C15.5014 18.8367 15.2907 18.8838 15.077 18.8889Z" fill="#121212"/>
<path id="Vector_2" d="M17.1004 5H2.77821C2.63087 5 2.48956 4.94147 2.38537 4.83728C2.28119 4.73309 2.22266 4.59178 2.22266 4.44444C2.22266 4.2971 2.28119 4.15579 2.38537 4.0516C2.48956 3.94742 2.63087 3.88889 2.77821 3.88889H17.1004C17.2478 3.88889 17.3891 3.94742 17.4933 4.0516C17.5975 4.15579 17.656 4.2971 17.656 4.44444C17.656 4.59178 17.5975 4.73309 17.4933 4.83728C17.3891 4.94147 17.2478 5 17.1004 5Z" fill="#121212"/>
<path id="Vector_3" d="M11.666 7.22223H12.7771V15.5556H11.666V7.22223Z" fill="#121212"/>
<path id="Vector_4" d="M7.22266 7.22223H8.33377V15.5556H7.22266V7.22223Z" fill="#121212"/>
<path id="Vector_5" d="M12.7782 3.25556H11.7227V2.22223H8.27821V3.25556H7.22266V2.22223C7.2223 1.93692 7.33171 1.66241 7.52821 1.45556C7.72472 1.24871 7.99326 1.12538 8.27821 1.11111H11.7227C12.0076 1.12538 12.2762 1.24871 12.4727 1.45556C12.6692 1.66241 12.7786 1.93692 12.7782 2.22223V3.25556Z" fill="#121212"/>
</g>
</svg>
